<svg width="186" height="296" viewBox="0 0 186 296" fill="none" xmlns="http://www.w3.org/2000/svg">
<path d="M73.5758 162.607L73.5029 162.595V162.813L88.2182 180.176L93.2974 191.323L88.2182 180.176L73.5758 162.607Z" fill="#111111"/>
<path d="M104.44 275.334L133.859 247.978L144.37 238.204L104.44 275.334Z" fill="#111111"/>
<path d="M186 13.5749C186 6.10747 179.888 0 172.415 0H158.721L186 38.624V13.5749Z" fill="#111111"/>
<path d="M186 13.5749C186 6.10747 179.888 0 172.415 0H158.721L186 38.624V13.5749Z" fill="url(#paint0_linear_0_1)"/>
<path d="M145.84 61.3419L149.06 63.6246L186 50.8268V38.624L158.72 0H142.741L145.84 61.3297V61.3419Z" fill="#111111"/>
<path d="M145.84 61.3419L149.06 63.6246L186 50.8268V38.624L158.72 0H142.741L145.84 61.3297V61.3419Z" fill="url(#paint1_linear_0_1)"/>
<path d="M186 89.8271V50.8267L149.06 63.6244L186 89.8271Z" fill="#111111"/>
<path d="M186 89.8271V50.8267L149.06 63.6244L186 89.8271Z" fill="url(#paint2_linear_0_1)"/>
<path d="M145.718 61.2569L139.934 0H94.5857L78.4852 13.5627L145.718 61.2569Z" fill="#111111"/>
<path d="M145.718 61.2569L139.934 0H94.5857L78.4852 13.5627L145.718 61.2569Z" fill="url(#paint3_linear_0_1)"/>
<path d="M94.5857 0H54.207L78.4853 13.5627L94.5857 0Z" fill="#111111"/>
<path d="M94.5857 0H54.207L78.4853 13.5627L94.5857 0Z" fill="url(#paint4_linear_0_1)"/>
<path d="M78.4853 13.5627L54.207 0H13.5852C13.172 0 12.771 0.0242842 12.37 0.0607105L47.9855 49.1633L78.4731 13.5627H78.4853Z" fill="#111111"/>
<path d="M78.4853 13.5627L54.207 0H13.5852C13.172 0 12.771 0.0242842 12.37 0.0607105L47.9855 49.1633L78.4731 13.5627H78.4853Z" fill="url(#paint5_linear_0_1)"/>
<path d="M12.3822 0.0612793C5.46809 0.680526 0 6.52087 0 13.5754V56.6192L47.9976 49.1761L12.3822 0.0612793Z" fill="#111111"/>
<path d="M12.3822 0.0612793C5.46809 0.680526 0 6.52087 0 13.5754V56.6192L47.9976 49.1761L12.3822 0.0612793Z" fill="url(#paint6_linear_0_1)"/>
<path d="M146.144 64.6324L78.4852 13.5627L73.5761 107.47L116.519 102.892L106.47 103.693L186 94.5141V90.2886L146.144 64.6324Z" fill="#111111"/>
<path d="M146.144 64.6324L78.4852 13.5627L73.5761 107.47L116.519 102.892L106.47 103.693L186 94.5141V90.2886L146.144 64.6324Z" fill="url(#paint7_linear_0_1)"/>
<path d="M149.06 63.6246L145.84 61.3419L146.144 64.6324L149.06 63.6246Z" fill="#111111"/>
<path d="M149.06 63.6246L145.84 61.3419L146.144 64.6324L149.06 63.6246Z" fill="url(#paint8_linear_0_1)"/>
<path d="M149.06 63.6246L145.84 61.3419L146.144 64.6324L149.06 63.6246Z" fill="url(#paint9_linear_0_1)"/>
<path d="M146.144 64.6324L186 90.2886V89.8272L149.06 63.6246L146.144 64.6324Z" fill="#111111"/>
<path d="M146.144 64.6324L186 90.2886V89.8272L149.06 63.6246L146.144 64.6324Z" fill="url(#paint10_linear_0_1)"/>
<path d="M146.144 64.6324L186 90.2886V89.8272L149.06 63.6246L146.144 64.6324Z" fill="url(#paint11_linear_0_1)"/>
<path d="M145.84 61.3419L145.986 64.086L145.718 61.2569L78.4852 13.5627L146.144 64.6324L145.84 61.3419Z" fill="#111111"/>
<path d="M145.84 61.3419L145.986 64.086L145.718 61.2569L78.4852 13.5627L146.144 64.6324L145.84 61.3419Z" fill="url(#paint12_linear_0_1)"/>
<path d="M145.84 61.3419L145.986 64.086L145.718 61.2569L78.4852 13.5627L146.144 64.6324L145.84 61.3419Z" fill="url(#paint13_linear_0_1)"/>
<path d="M47.9976 49.1633L0 56.6186V68.5907L38.1429 87.3017L47.9976 49.1633Z" fill="#111111"/>
<path d="M47.9976 49.1633L0 56.6186V68.5907L38.1429 87.3017L47.9976 49.1633Z" fill="url(#paint14_linear_0_1)"/>
<path d="M47.9973 49.1631L38.1426 87.3015L73.5758 107.469L78.4849 13.5625L47.9973 49.1631Z" fill="#111111"/>
<path d="M47.9973 49.1631L38.1426 87.3015L73.5758 107.469L78.4849 13.5625L47.9973 49.1631Z" fill="url(#paint15_linear_0_1)"/>
<path d="M73.5761 107.47L165.695 158.199C173.824 162.546 181.079 166.456 186 169.103V95.183L116.519 102.892L73.5761 107.47Z" fill="#111111"/>
<path d="M73.5761 107.47L165.695 158.199C173.824 162.546 181.079 166.456 186 169.103V95.5718L116.519 102.892L73.5761 107.47Z" fill="url(#paint16_linear_0_1)"/>
<path d="M186 171.009V169.577C160.993 157.422 112.643 130.613 112.643 130.613C121.878 134.923 146.265 147.83 165.695 158.224L73.5761 107.47L88.2184 141.164L186 170.997V171.009Z" fill="#111111"/>
<path d="M186 171.009V169.577C160.993 157.422 112.643 130.613 112.643 130.613C121.878 134.923 146.265 147.83 165.695 158.224L73.5761 107.47L88.2184 141.164L186 170.997V171.009Z" fill="url(#paint17_linear_0_1)"/>
<path d="M103.031 158.576L186 171.956V171.009L88.2188 141.164L103.031 158.576Z" fill="#111111"/>
<path d="M103.031 158.576L186 171.956V171.009L88.2188 141.164L103.031 158.576Z" fill="url(#paint18_linear_0_1)"/>
<path d="M149.036 197.066L186 176.655V171.956L103.031 158.576L149.036 197.066Z" fill="#111111"/>
<path d="M149.036 197.066L186 176.655V171.956L103.031 158.576L149.036 197.066Z" fill="url(#paint19_linear_0_1)"/>
<path d="M149.035 197.066L144.369 238.204L186 247.832V176.655L149.035 197.066Z" fill="#111111"/>
<path d="M149.035 197.066L144.369 238.204L186 247.832V176.655L149.035 197.066Z" fill="url(#paint20_linear_0_1)"/>
<path d="M102.776 158.406L103.906 193.885L103.031 158.576L88.2188 141.164V180.177L93.298 191.323L102.776 212.098V158.406Z" fill="#111111"/>
<path d="M102.776 158.406L103.906 193.885L103.031 158.576L88.2188 141.164V180.177L93.298 191.323L102.776 212.098V158.406Z" fill="url(#paint21_linear_0_1)"/>
<path d="M73.5761 162.607L88.2184 180.177V141.164L73.5761 107.47V162.607Z" fill="#111111"/>
<path d="M73.5761 162.607L88.2184 180.177V141.164L73.5761 107.47V162.607Z" fill="url(#paint22_linear_0_1)"/>
<path d="M102.776 212.11L93.2977 191.323L88.2185 180.177L0 152.687V156.548L102.776 213.082V212.11Z" fill="#111111"/>
<path d="M102.776 212.11L93.2977 191.323L88.2185 180.177L0 152.687V156.548L102.776 213.082V212.11Z" fill="url(#paint23_linear_0_1)"/>
<path d="M0 156.839V157.046L27.6928 172.612L0 156.839Z" fill="#111111"/>
<path d="M0 156.839V157.046L27.6928 172.612L0 156.839Z" fill="url(#paint24_linear_0_1)"/>
<path d="M93.2977 191.323L102.776 212.11V212.098L93.2977 191.323Z" fill="#111111"/>
<path d="M93.2977 191.323L102.776 212.11V212.098L93.2977 191.323Z" fill="url(#paint25_linear_0_1)"/>
<path d="M93.2977 191.323L102.776 212.11V212.098L93.2977 191.323Z" fill="url(#paint26_linear_0_1)"/>
<path d="M73.5032 162.813V163.25L30.2932 155.31L0 150.198V152.687L88.2185 180.177L73.5032 162.813Z" fill="#111111"/>
<path d="M73.5032 162.813V163.25L30.2932 155.31L0 150.198V152.687L88.2185 180.177L73.5032 162.813Z" fill="url(#paint27_linear_0_1)"/>
<path d="M49.6138 233.177L104.44 275.334V216.299L27.6928 172.6L0 157.046V164.258L49.5166 233.043L49.6138 233.177Z" fill="#111111"/>
<path d="M49.6138 233.177L104.44 275.334V216.299L27.6928 172.6L0 157.046V164.258L49.5166 233.043L49.6138 233.177Z" fill="url(#paint28_linear_0_1)"/>
<path d="M71.5222 158.224L73.5029 125.914V162.449L73.5758 162.607V107.47L38.1426 87.3018L71.5222 158.224Z" fill="#111111"/>
<path d="M71.5222 158.224L73.5029 125.914V162.449L73.5758 162.607V107.47L38.1426 87.3018L71.5222 158.224Z" fill="url(#paint29_linear_0_1)"/>
<path d="M71.5226 158.224L38.1429 87.3017L0 127.528V149.906L71.3646 160.725L71.5226 158.224Z" fill="#111111"/>
<path d="M71.5226 158.224L38.1429 87.3017L0 127.528V149.906L71.3646 160.725L71.5226 158.224Z" fill="url(#paint30_linear_0_1)"/>
<path d="M73.5029 162.596L73.5769 162.609L73.5029 162.449V162.596Z" fill="#111111"/>
<path d="M73.5029 162.596L73.5769 162.609L73.5029 162.449V162.596Z" fill="url(#paint31_linear_0_1)"/>
<path d="M15.1648 152.529L71.3646 160.81V160.725L0 149.906V150.198L30.2932 155.31L15.1648 152.529Z" fill="#111111"/>
<path d="M15.1648 152.529L71.3646 160.81V160.725L0 149.906V150.198L30.2932 155.31L15.1648 152.529Z" fill="url(#paint32_linear_0_1)"/>
<path d="M15.1648 152.529L71.3646 160.81V160.725L0 149.906V150.198L30.2932 155.31L15.1648 152.529Z" fill="url(#paint33_linear_0_1)"/>
<path d="M38.1426 87.3018L71.5222 158.224L38.1426 87.3018Z" fill="#111111"/>
<path d="M38.1426 87.3018L71.5222 158.224L38.1426 87.3018Z" fill="url(#paint34_linear_0_1)"/>
<path d="M38.1426 87.3018L71.5222 158.224L38.1426 87.3018Z" fill="url(#paint35_linear_0_1)"/>
<path d="M0 68.5907V127.528L38.1429 87.3017L0 68.5907Z" fill="#111111"/>
<path d="M0 68.5907V127.528L38.1429 87.3017L0 68.5907Z" fill="url(#paint36_linear_0_1)"/>
<path d="M36.0165 252.689L29.3211 264.03L49.6138 233.177L0 170.305V282.425C0 288.229 3.70615 293.207 8.8583 295.138L10.3894 292.807L36.0165 252.701V252.689Z" fill="#111111"/>
<path d="M36.0165 252.689L29.3211 264.03L49.6138 233.177L0 170.305V282.425C0 288.229 3.70615 293.207 8.8583 295.138L10.3894 292.807L36.0165 252.701V252.689Z" fill="url(#paint37_linear_0_1)"/>
<path d="M49.6016 233.153C34.777 214.162 7.66747 175.684 7.66747 175.684L49.5166 233.043L0 164.258V170.305L49.6138 233.177V233.153H49.6016Z" fill="#111111"/>
<path d="M49.6016 233.153C34.777 214.162 7.66747 175.684 7.66747 175.684L49.5166 233.043L0 164.258V170.305L49.6138 233.177V233.153H49.6016Z" fill="url(#paint38_linear_0_1)"/>
<path d="M49.6016 233.153C34.777 214.162 7.66747 175.684 7.66747 175.684L49.5166 233.043L0 164.258V170.305L49.6138 233.177V233.153H49.6016Z" fill="url(#paint39_linear_0_1)"/>
<path d="M8.85831 295.126H8.89476L10.3894 292.794L8.85831 295.126Z" fill="#111111"/>
<path d="M8.85831 295.126H8.89476L10.3894 292.794L8.85831 295.126Z" fill="url(#paint40_linear_0_1)"/>
<path d="M104.441 275.334L49.6142 233.177L29.3215 264.03L10.6328 295.66C11.5806 295.879 12.577 296 13.5856 296H59.4689L104.441 275.334Z" fill="#111111"/>
<path d="M104.441 275.334L49.6142 233.177L29.3215 264.03L10.6328 295.66C11.5806 295.879 12.577 296 13.5856 296H59.4689L104.441 275.334Z" fill="url(#paint41_linear_0_1)"/>
<path d="M59.4688 296H104.441V275.334L59.4688 296Z" fill="#111111"/>
<path d="M59.4688 296H104.441V275.334L59.4688 296Z" fill="url(#paint42_linear_0_1)"/>
<path d="M103.906 193.885L104.599 215.85L144.37 238.204L149.036 197.066L103.031 158.576L103.906 193.885Z" fill="#111111"/>
<path d="M103.906 193.885L104.599 215.85L144.37 238.204L149.036 197.066L103.031 158.576L103.906 193.885Z" fill="url(#paint43_linear_0_1)"/>
<path d="M144.369 238.204L133.858 247.978L144.369 238.204Z" fill="#111111"/>
<path d="M144.369 238.204L133.858 247.978L144.369 238.204Z" fill="url(#paint44_linear_0_1)"/>
<path d="M106.993 276.111L106.021 296H172.415C179.888 296 186 289.893 186 282.425V247.832L144.37 238.204L106.993 276.111Z" fill="#111111"/>
<path d="M106.993 276.111L106.021 296H172.415C179.888 296 186 289.893 186 282.425V247.832L144.37 238.204L106.993 276.111Z" fill="url(#paint45_linear_0_1)"/>
<path d="M104.623 216.409L104.44 216.299V275.334L144.37 238.204L104.598 215.85L104.623 216.409Z" fill="#111111"/>
<path d="M104.623 216.409L104.44 216.299V275.334L144.37 238.204L104.598 215.85L104.623 216.409Z" fill="url(#paint46_linear_0_1)"/>
<path d="M142.741 0H140.165L145.84 61.3297L142.741 0Z" fill="#ED1C24"/>
<path opacity="0.9" d="M145.84 61.3419V61.3297L140.165 0H139.934L145.718 61.2569L145.84 61.3419Z" fill="#ED1C24"/>
<path d="M145.84 61.3418L145.719 61.2568L145.986 64.0859L145.84 61.3418Z" fill="#ED1C24"/>
<path opacity="0.9" d="M116.519 102.892L186 95.4733V94.514L106.47 103.693L116.519 102.892Z" fill="#ED1C24"/>
<path opacity="0.1" d="M116.519 102.892L186 97.3673V95.4731L116.519 102.892Z" fill="#ED1C24"/>
<path d="M186 169.382V169.103C181.079 166.444 173.824 162.546 165.695 158.199L186 169.382Z" fill="#ED1C24"/>
<path opacity="0.9" d="M186 169.564V169.382L165.695 158.199C146.265 147.806 121.878 134.899 112.643 130.588C112.643 130.588 160.98 157.398 186 169.552V169.564Z" fill="#ED1C24"/>
<path d="M10.3896 292.806L29.3214 264.03L36.0167 252.689L10.3896 292.806Z" fill="#ED1C24"/>
<path d="M10.3894 292.807L8.89474 295.15C9.4537 295.356 10.037 295.539 10.6324 295.672L29.3211 264.042L10.4015 292.807H10.3894Z" fill="#ED1C24"/>
<path d="M73.2842 162.546L73.5029 162.814V162.595L73.2842 162.546Z" fill="#ED1C24"/>
<path d="M30.2932 155.31L73.5032 163.25V162.813L73.2845 162.546L30.2932 155.31Z" fill="#ED1C24"/>
<path opacity="0.9" d="M73.5032 125.914L71.5226 158.224L73.5032 162.449V125.914Z" fill="#ED1C24"/>
<path d="M73.2842 162.546L73.5029 162.595V162.449L71.5222 158.224L71.3643 160.725L71.7896 160.786L73.2842 162.546Z" fill="#ED1C24"/>
<path opacity="0.9" d="M71.7899 160.786L71.3646 160.725V160.81L15.1648 152.529L30.2932 155.31L73.2845 162.546L71.7899 160.786Z" fill="#ED1C24"/>
<path opacity="0.9" d="M102.775 212.098L104.44 215.753L103.905 193.885L102.775 158.406V212.098Z" fill="#ED1C24"/>
<path opacity="0.9" d="M104.44 215.753L102.776 212.11V213.082L0 156.548V156.839L27.6928 172.612L104.44 215.753Z" fill="#ED1C24"/>
<path d="M104.44 215.753L102.775 212.098V212.11L104.44 215.753Z" fill="#ED1C24"/>
<path d="M104.44 215.753L27.6924 172.612L104.44 216.299V215.753Z" fill="#ED1C24"/>
<path d="M104.441 215.753L104.599 215.85L103.906 193.885L104.441 215.753Z" fill="#ED1C24"/>
<path d="M104.44 216.299L104.623 216.409L104.598 215.85L104.44 215.753V216.299Z" fill="#ED1C24"/>
<path d="M49.5165 233.043L49.5902 233.153V233.178L49.5165 233.043Z" fill="#ED1C24"/>
<path d="M7.66699 175.696C7.66699 175.696 34.7765 214.175 49.6011 233.165L49.5282 233.056L7.66699 175.696Z" fill="#ED1C24"/>
<path d="M104.44 275.334L133.859 247.978L104.44 275.334Z" fill="#ED1C24"/>
<path d="M144.37 238.204L133.859 247.978L104.44 275.334V296H106.02L106.992 276.111L144.37 238.204Z" fill="#ED1C24"/>
<rect width="186" height="296" fill="url(#paint47_linear_0_1)" fill-opacity="0.9"/>
<path fill-rule="evenodd" clip-rule="evenodd" d="M124.194 26.251V15.5174H148.072L140.1 26.251H124.194ZM142.701 26.251L148.764 15.5174H172.168V26.251H142.689H142.701Z" fill="#0862AB"/>
<path d="M172.374 15.3232H124V26.4453H140.283L140.501 26.3239L147.756 16.5495L142.689 25.5225L142.069 26.4453H172.374V15.3232ZM147.331 15.8817L139.906 25.8746H124.559V15.8817H147.331ZM171.803 15.8817V25.8746H143.333L148.983 15.8817H171.803Z" fill="white"/>
<path fill-rule="evenodd" clip-rule="evenodd" d="M154.341 23.4343C154.439 23.325 154.706 22.56 154.779 22.5479H157.015L157.416 23.4343H158.327L157.148 20.8358C156.954 20.3987 156.747 19.9738 156.553 19.5366L156.03 18.3953C155.982 18.2739 155.994 18.2617 155.933 18.2617C155.885 18.2739 155.897 18.2617 155.872 18.3346L155.301 19.5488C155.095 19.9738 154.9 20.4109 154.694 20.848L153.624 23.1186C153.588 23.2036 153.503 23.3614 153.479 23.4464H154.341V23.4343ZM155.083 21.8315C155.119 21.6979 155.86 20.0102 155.909 19.9738L156.711 21.8315H155.095H155.083ZM166.626 20.8116C166.76 20.6901 167.052 20.338 167.197 20.2166L168.607 18.7231C168.692 18.626 168.814 18.5288 168.874 18.4196H167.963C167.878 18.4196 167.89 18.4196 167.841 18.4438L167.003 19.3302C167.003 19.3302 166.918 19.4152 166.869 19.4759C166.505 19.8645 166.14 20.253 165.764 20.6416C165.739 19.9616 165.764 19.1238 165.764 18.4074H164.901V23.4221H165.764V23.3493C165.776 22.7543 165.764 22.0258 165.764 21.4065V21.0908L167.914 23.325C167.999 23.41 167.951 23.4221 168.109 23.4221H169.117L168.498 22.7664C168.388 22.6693 168.303 22.5479 168.194 22.4386L167.088 21.2972C167.088 21.2972 166.979 21.2001 166.93 21.1394C166.869 21.0665 166.663 20.8723 166.626 20.7994V20.8116ZM152.008 20.7508C152.373 20.5809 152.677 20.3987 152.762 19.9373C152.859 19.4274 152.677 19.0145 152.409 18.7838C152.118 18.5288 151.692 18.4317 151.206 18.4196C150.696 18.4196 150.173 18.4196 149.663 18.4196V23.4343C150.186 23.4464 150.842 23.4585 151.364 23.4221C151.85 23.3857 152.251 23.2643 152.579 22.9486C152.859 22.6693 152.993 22.1108 152.871 21.6129C152.713 20.9208 152.166 20.848 152.033 20.763L152.008 20.7508ZM150.477 20.4959V19.0752C150.793 19.0388 151.437 19.0631 151.692 19.2452C151.838 19.3545 151.923 19.5124 151.923 19.7673C151.911 20.4716 151 20.6173 150.477 20.4959ZM150.477 22.7179V21.1515C150.854 21.0908 151.51 21.1394 151.79 21.358C152.081 21.5887 152.118 22.1836 151.79 22.4872C151.534 22.73 150.769 22.7907 150.465 22.7179H150.477ZM160.016 20.253C160.077 20.2894 160.769 21.0301 160.842 21.103C160.976 21.2487 161.11 21.3822 161.243 21.5279C161.571 21.8801 161.948 22.2443 162.264 22.5964L163.066 23.4343C163.224 23.5921 163.187 23.5921 163.309 23.5921V18.4196H162.458V21.6008L161.231 20.3259C161.158 20.2652 161.097 20.1802 161.025 20.1073C160.964 20.0345 160.891 19.9738 160.818 19.9009C160.368 19.4031 159.858 18.9052 159.408 18.4196C159.372 18.3831 159.348 18.3467 159.311 18.3103C159.263 18.2617 159.263 18.2617 159.165 18.2617V23.4343H160.004V20.2652L160.016 20.253Z" fill="white"/>
<path fill-rule="evenodd" clip-rule="evenodd" d="M136.735 23.3611C137.865 23.7739 139.481 23.7497 139.809 22.3776C140.028 21.4427 139.518 20.8841 138.764 20.4713L138.035 20.0585C137.428 19.7063 137.707 19.0992 138.412 19.2207C138.619 19.2571 138.813 19.3299 138.983 19.4149C139.165 19.4999 139.311 19.5971 139.469 19.6699V18.5043C139.275 18.4557 139.092 18.3829 138.874 18.3343C136.686 17.8365 136.042 19.7913 137.063 20.7141C137.209 20.8477 137.318 20.9327 137.501 21.042C137.829 21.2484 138.108 21.3698 138.436 21.6005C138.995 21.9769 138.716 22.7054 137.683 22.499C137.185 22.4019 136.747 22.074 136.626 22.0376L136.723 23.3611H136.735ZM135.52 22.3897H133.6V21.3941H135.228V20.3742H133.6V19.4635H135.508V18.4314H132.47V23.434H135.52V22.3897ZM128.837 21.0541C128.837 21.0541 128.849 21.0298 128.861 21.1027V23.434H130.015C130.04 22.8147 130.015 21.9648 130.015 21.297V21.0663C130.015 20.9934 130.015 21.0298 130.04 21.0055C130.161 20.7991 131.449 19.0871 131.704 18.7593C131.789 18.65 131.875 18.5407 131.935 18.4314H130.684L129.554 19.9977C129.456 19.9006 128.545 18.4436 128.509 18.4314H127.087L127.524 19.0871C127.67 19.3056 127.828 19.5242 127.962 19.7428L128.849 21.0541H128.837Z" fill="white"/>
<path fill-rule="evenodd" clip-rule="evenodd" d="M150.611 12.1662L140.963 29.238L138.181 26.2996L140.076 26.3603L150.611 12.1662Z" fill="#ED1C24"/>
<path d="M148.971 15.8331L148.643 15.651L150.769 11.8626L147.938 15.7967L147.646 15.5781L153.066 8.54785L148.971 15.8331Z" fill="white"/>
<path d="M140.988 29.5415L138.047 26.421L138.314 26.1782L140.939 28.9466L142.664 26.2267L142.98 26.421L140.988 29.5415Z" fill="white"/>
<path opacity="0.1" fill-rule="evenodd" clip-rule="evenodd" d="M68.0001 76C68.0001 75.7239 67.7763 75.5 67.5001 75.5C67.224 75.5 67.0001 75.7239 67.0001 76V87.6219L14.3745 102.516C14.3373 102.526 14.3018 102.539 14.2684 102.557C14.2017 102.592 14.1451 102.64 14.1013 102.698C14.0575 102.756 14.026 102.824 14.0107 102.897C14.0029 102.934 13.9993 102.972 14.0001 103.011L14.0001 115C14.0001 115.276 14.224 115.5 14.5001 115.5C14.7763 115.5 15.0001 115.276 15.0001 115V103.378L67.6363 88.4811C67.8515 88.4202 68.0001 88.2237 68.0001 88V76Z" fill="white"/>
<path opacity="0.1" fill-rule="evenodd" clip-rule="evenodd" d="M68.0001 103C68.0001 102.724 67.7763 102.5 67.5001 102.5C67.224 102.5 67.0001 102.724 67.0001 103V114.622L14.3745 129.516C14.3373 129.526 14.3018 129.539 14.2684 129.557C14.2017 129.592 14.1451 129.64 14.1013 129.698C14.0575 129.756 14.026 129.824 14.0107 129.897C14.0029 129.934 13.9993 129.972 14.0001 130.011L14.0001 142C14.0001 142.276 14.224 142.5 14.5001 142.5C14.7763 142.5 15.0001 142.276 15.0001 142V130.378L67.6363 115.481C67.8515 115.42 68.0001 115.224 68.0001 115V103Z" fill="white"/>
<path opacity="0.1" fill-rule="evenodd" clip-rule="evenodd" d="M68.0001 129C68.0001 128.724 67.7763 128.5 67.5001 128.5C67.224 128.5 67.0001 128.724 67.0001 129V140.622L14.3745 155.516C14.3373 155.526 14.3018 155.539 14.2684 155.557C14.2017 155.592 14.1451 155.64 14.1013 155.698C14.0575 155.756 14.026 155.824 14.0107 155.897C14.0029 155.934 13.9993 155.972 14.0001 156.011L14.0001 168C14.0001 168.276 14.224 168.5 14.5001 168.5C14.7763 168.5 15.0001 168.276 15.0001 168V156.378L67.6363 141.481C67.8515 141.42 68.0001 141.224 68.0001 141V129Z" fill="white"/>
<path d="M56.4545 27.5866C56.5153 27.4288 56.9284 26.7246 57.0378 26.5789C57.0864 26.6031 57.1471 26.6274 57.1957 26.6638C57.8276 27.016 58.4959 27.2467 59.2128 27.356C61.5702 27.7202 63.8668 26.7246 65.2156 24.8304C65.7989 24.0047 66.1634 23.0941 66.2971 22.0984C66.7102 18.9172 64.7174 16.1974 61.9833 15.3717C61.2178 15.141 60.4401 15.056 59.6503 15.1289C56.8069 15.3838 54.6926 17.4844 54.1579 19.9614C53.8906 21.2363 53.9999 22.4748 54.5103 23.689C54.6197 23.9683 54.729 24.2354 54.7898 24.539C55.045 25.826 54.4617 27.1374 53.3438 27.8295C52.8213 28.1452 52.2623 28.303 51.6426 28.303C50.6948 28.303 49.7591 28.303 48.8113 28.303C48.3374 28.303 47.8635 28.303 47.3896 28.303C46.5876 28.303 45.895 28.0238 45.2875 27.5017C45.1295 27.3681 44.9958 27.2224 44.8743 27.0645C44.85 27.0403 44.8379 27.0038 44.8014 26.9553C44.8743 26.8338 44.9715 26.7367 45.0566 26.6274C45.1295 26.5181 45.2145 26.4089 45.2996 26.3117C45.3847 26.2025 45.4576 26.081 45.5426 25.9596C45.5791 26.0325 45.6155 26.0689 45.6398 26.1175C45.9558 26.6396 46.4175 26.9553 47.0129 27.0888C47.1223 27.1131 47.2438 27.1253 47.3532 27.1253C48.7992 27.1253 50.2573 27.1253 51.7033 27.1253C52.5418 27.1253 53.3195 26.5667 53.5868 25.7168C53.9392 24.5754 53.1858 23.3733 52.0071 23.1791C51.8735 23.1548 51.7398 23.1548 51.6061 23.1426C51.0715 23.1426 50.5368 23.1426 50.0143 23.1426C49.9293 23.1426 49.832 23.1426 49.747 23.1062C49.5526 23.0334 49.4189 22.8877 49.3703 22.6812C49.3581 22.5962 49.346 22.5113 49.346 22.4141C49.346 20.5928 49.346 18.7836 49.346 16.9623C49.346 16.7802 49.346 16.5981 49.2974 16.4159C49.103 15.5174 48.301 14.8739 47.4139 14.8374C46.454 14.801 45.6034 15.4446 45.3847 16.3674C45.3482 16.5252 45.3239 16.683 45.3239 16.8409C45.3239 17.1566 45.3239 17.4723 45.3239 17.788C45.3239 18.7958 45.3239 19.8157 45.3239 20.8235C45.3239 21.1878 45.2996 21.5399 45.2388 21.9041C45.1173 22.6084 44.9351 23.3005 44.6556 23.9683C44.1209 25.2554 43.246 26.2632 42.1038 27.0524C41.2411 27.6474 40.2811 28.0359 39.2361 28.218C35.2383 28.8859 31.678 26.3117 30.8274 22.6691C30.7423 22.3048 30.6937 21.9406 30.6573 21.5642C30.6573 21.4792 30.6573 21.4063 30.7302 21.3456C31.0704 21.0178 31.4107 20.6899 31.7631 20.3621C31.7752 20.35 31.7995 20.3378 31.836 20.3135C31.836 20.35 31.836 20.3742 31.836 20.3985C31.7266 21.5763 31.921 22.7055 32.4678 23.7497C33.4035 25.5468 34.8616 26.6396 36.8423 27.0524C40.2447 27.6595 43.2582 25.4861 43.9873 22.402C44.0845 21.977 44.1452 21.552 44.1452 21.1271C44.1452 19.8157 44.1452 18.5044 44.1452 17.193C44.1452 17.0716 44.1452 16.9502 44.1452 16.8288C44.1574 15.6874 44.6556 14.7889 45.6155 14.1696C47.4625 12.9918 49.9414 13.9754 50.4396 16.1852C50.5004 16.4402 50.5125 16.6952 50.5125 16.9623C50.5125 18.5408 50.5125 20.1314 50.5125 21.7099C50.5125 21.7949 50.5125 21.8677 50.5368 21.9649C50.6097 21.9649 50.6705 21.9649 50.7312 21.9649C50.9986 21.9649 51.278 21.9649 51.5454 21.9649C51.9585 21.9649 52.3717 22.0256 52.7605 22.1591C52.7848 22.1591 52.8213 22.1713 52.8577 22.1834C52.8577 22.1348 52.8577 22.0984 52.8577 22.062C52.8334 21.7706 52.8091 21.467 52.8213 21.1756C52.8577 19.415 53.4288 17.8487 54.5711 16.5009C55.6647 15.2139 57.0499 14.3882 58.7146 14.0604C62.7003 13.2833 66.3578 15.7724 67.2813 19.4757C67.4757 20.2528 67.5365 21.0421 67.4757 21.8313C67.1963 25.1947 64.7538 27.7566 61.7646 28.4123C61.1571 28.5459 60.5373 28.6066 59.9176 28.5823C58.7268 28.5337 57.621 28.2302 56.576 27.6595C56.5274 27.6352 56.4667 27.5988 56.418 27.5624L56.4545 27.5866Z" fill="#ED1C24"/>
<path d="M42.8086 15.4446C42.8207 16.0031 42.8329 16.5495 42.8329 17.1323C42.7843 17.0959 42.76 17.0837 42.7478 17.0595C42.5777 16.8773 42.4076 16.6831 42.2253 16.5131C41.3383 15.6753 40.2933 15.1532 39.1024 14.9346C38.5313 14.8253 37.9602 14.8132 37.377 14.8739C36.2712 14.9953 35.2626 15.3839 34.3634 16.0395C34.2905 16.1002 34.2176 16.1609 34.1447 16.2217C33.0997 17.2416 32.0668 18.2615 31.0218 19.2815C30.232 20.0586 29.43 20.8235 28.6402 21.6006C28.4457 21.7827 28.4822 21.722 28.4822 21.977C28.4822 23.2641 28.4822 24.5633 28.4822 25.8503C28.4822 26.5667 28.2513 27.1981 27.7896 27.7324C27.1456 28.4852 26.3071 28.8373 25.3107 28.7766C24.1928 28.7159 23.0627 27.9509 22.6739 26.6881C22.5767 26.3846 22.5402 26.081 22.5402 25.7653C22.5402 24.5633 22.5402 23.3612 22.5402 22.1591C22.5402 21.8192 22.5767 21.9284 22.3579 21.6977C21.5317 20.8114 20.6932 19.9371 19.8669 19.0508C19.2472 18.3829 18.9799 17.5937 19.0771 16.6952C19.2229 15.3717 20.2193 14.3275 21.5195 14.1211C22.5038 13.9632 23.3665 14.2425 24.0834 14.9346C24.5087 15.3474 24.9219 15.7724 25.335 16.1852C25.3836 16.2338 25.4322 16.2824 25.4808 16.3188C25.5537 16.3188 25.5902 16.2581 25.6266 16.2217C26.0519 15.7967 26.4772 15.3717 26.9025 14.9467C27.2549 14.5946 27.6681 14.3518 28.142 14.2061C29.272 13.8661 30.4993 14.2304 31.2527 15.141C31.3013 15.1896 31.3378 15.2503 31.3742 15.2989C31.2891 15.4203 30.7545 15.9667 30.5601 16.1367C30.4872 16.1367 30.475 16.0638 30.4507 16.0152C30.1955 15.6631 29.8674 15.4203 29.4422 15.3231C28.8346 15.1774 28.2999 15.311 27.826 15.6995C27.7653 15.7481 27.7167 15.8088 27.6559 15.8574C27.1091 16.4038 26.5623 16.9502 26.0155 17.4966C25.979 17.533 25.9426 17.5694 25.9061 17.6059C25.6874 17.8244 25.2986 17.8244 25.0798 17.6059C25.0434 17.5694 25.0069 17.533 24.9705 17.4966C24.4115 16.938 23.8526 16.3795 23.2936 15.821C22.9777 15.5053 22.6131 15.3231 22.1757 15.2746C21.8597 15.2381 21.556 15.2989 21.2643 15.4203C20.1586 15.9302 19.8669 17.363 20.7054 18.2615C21.5803 19.1965 22.4551 20.1314 23.3422 21.0542C23.3786 21.0906 23.4151 21.1392 23.4637 21.1756C23.646 21.3335 23.7067 21.5399 23.7067 21.7827C23.7067 23.0941 23.7067 24.4176 23.7067 25.7411C23.7067 25.9232 23.7189 26.0932 23.7675 26.2632C23.9498 27.016 24.6545 27.5988 25.4687 27.6109C26.3314 27.6231 27.1334 27.0281 27.2792 26.081C27.2914 25.9718 27.2914 25.8625 27.2914 25.7532C27.2914 24.3811 27.2914 23.0091 27.2914 21.6249C27.2914 21.5885 27.2914 21.552 27.2914 21.5156C27.2914 21.3335 27.3521 21.1756 27.4858 21.0421C27.7045 20.8357 27.9111 20.6171 28.1177 20.4107C28.4943 20.0343 28.871 19.6579 29.2477 19.2815C29.8553 18.6865 30.475 18.1037 31.0826 17.5209C31.3864 17.2294 31.6901 16.938 31.9818 16.6466C32.164 16.4766 32.3342 16.2945 32.4921 16.1124C33.6951 14.801 35.1654 13.9511 36.9152 13.6111C38.4827 13.3076 39.9652 13.5868 41.3504 14.3761C41.8365 14.6553 42.2982 14.9953 42.7235 15.3596C42.7478 15.3839 42.7721 15.396 42.7964 15.4203L42.8086 15.4446Z" fill="#ED1C24"/>
<path d="M172.076 245.482L176.074 253.423L167.665 261.388L172.076 245.482Z" fill="#048040"/>
<path d="M169.294 245.482L173.304 253.423L164.883 261.388L169.294 245.482Z" fill="#F37124"/>
<path d="M105.062 258.498L109.059 244.11H115.451C117.444 244.11 118.78 244.426 119.461 245.081C120.129 245.725 120.263 246.781 119.862 248.262C119.619 249.137 119.242 249.865 118.732 250.448C118.221 251.031 117.553 251.492 116.727 251.82C117.419 251.99 117.869 252.33 118.076 252.828C118.27 253.326 118.258 254.066 118.015 255.013L117.529 257.017V257.065C117.383 257.636 117.432 257.94 117.65 257.964L117.504 258.498H113.179C113.191 258.158 113.215 257.855 113.251 257.6C113.288 257.345 113.324 257.138 113.361 257.005L113.762 255.572C113.968 254.831 113.981 254.309 113.786 254.006C113.604 253.702 113.166 253.544 112.498 253.544H110.688L109.302 258.51H105.074L105.062 258.498ZM111.562 250.29H113.507C114.187 250.29 114.685 250.193 115.001 249.987C115.317 249.78 115.548 249.452 115.682 248.942C115.815 248.432 115.791 248.08 115.585 247.886C115.378 247.692 114.904 247.595 114.151 247.595H112.316L111.562 250.29Z" fill="white"/>
<path d="M131.71 247.874L128.757 258.486H125.185L125.622 256.932C124.99 257.551 124.346 258.013 123.702 258.316C123.058 258.62 122.378 258.765 121.661 258.765C121.065 258.765 120.555 258.656 120.154 258.45C119.741 258.231 119.437 257.916 119.23 257.491C119.048 257.114 118.963 256.653 118.999 256.106C119.036 255.572 119.218 254.649 119.571 253.374L121.102 247.874H125.014L123.495 253.35C123.277 254.151 123.216 254.722 123.325 255.026C123.435 255.341 123.739 255.499 124.225 255.499C124.711 255.499 125.136 255.317 125.476 254.965C125.816 254.601 126.096 254.066 126.29 253.338L127.809 247.874H131.722H131.71Z" fill="white"/>
<path d="M130.288 258.498L134.274 244.11H139.766C140.981 244.11 141.917 244.183 142.585 244.341C143.254 244.486 143.776 244.729 144.165 245.069C144.651 245.518 144.955 246.077 145.076 246.745C145.186 247.413 145.125 248.19 144.87 249.112C144.42 250.715 143.63 251.954 142.524 252.816C141.407 253.666 140.021 254.091 138.357 254.091H135.793L134.577 258.498H130.3H130.288ZM136.765 250.582H138.138C139.025 250.582 139.657 250.472 140.021 250.254C140.374 250.047 140.629 249.659 140.787 249.112C140.933 248.554 140.896 248.165 140.665 247.959C140.434 247.74 139.863 247.631 138.952 247.631H137.579L136.765 250.582Z" fill="white"/>
<path d="M149.475 258.498L149.511 257.478C148.879 257.952 148.248 258.304 147.604 258.535C146.96 258.765 146.279 258.875 145.55 258.875C144.432 258.875 143.667 258.571 143.217 257.988C142.779 257.405 142.707 256.568 142.998 255.487C143.29 254.443 143.8 253.666 144.541 253.156C145.283 252.658 146.51 252.294 148.235 252.063C148.454 252.026 148.746 252.002 149.11 251.954C150.386 251.808 151.103 251.468 151.249 250.909C151.334 250.606 151.285 250.375 151.091 250.242C150.909 250.096 150.568 250.035 150.082 250.035C149.681 250.035 149.341 250.12 149.086 250.29C148.819 250.46 148.612 250.727 148.478 251.091H144.663C145.015 249.902 145.708 248.991 146.765 248.384C147.822 247.777 149.208 247.473 150.921 247.473C151.735 247.473 152.452 247.546 153.096 247.716C153.74 247.874 154.202 248.105 154.505 248.372C154.882 248.712 155.101 249.1 155.162 249.525C155.235 249.95 155.162 250.557 154.931 251.359L153.29 257.284C153.242 257.478 153.23 257.648 153.254 257.806C153.278 257.952 153.351 258.085 153.46 258.17L153.375 258.474H149.438L149.475 258.498ZM150.423 253.751C150.01 253.921 149.463 254.078 148.794 254.248C147.737 254.528 147.142 254.904 147.02 255.378C146.935 255.681 146.96 255.912 147.118 256.082C147.263 256.252 147.519 256.337 147.871 256.337C148.515 256.337 149.037 256.179 149.426 255.851C149.815 255.523 150.107 255.001 150.313 254.297C150.35 254.139 150.386 254.03 150.398 253.957L150.423 253.763" fill="white"/>
<path d="M153.436 262.675L154.31 259.53H155.428C155.805 259.53 156.097 259.458 156.303 259.324C156.51 259.19 156.656 258.948 156.741 258.632C156.777 258.498 156.801 258.341 156.826 258.171C156.838 258.001 156.838 257.806 156.826 257.588L156.23 247.874H160.192L160.131 254.309L163.594 247.874H167.276L161.164 258.438C160.471 259.615 159.961 260.429 159.645 260.866C159.329 261.303 159.025 261.643 158.734 261.874C158.357 262.19 157.932 262.42 157.482 262.554C157.032 262.687 156.34 262.76 155.404 262.76C155.137 262.76 154.833 262.76 154.493 262.736C154.165 262.724 153.812 262.7 153.448 262.675" fill="white"/>
<path fill-rule="evenodd" clip-rule="evenodd" d="M122.924 278.423L123.811 274.72H124.528C125.573 274.72 126.399 274.696 127.128 274.162C127.784 273.688 128.185 272.972 128.283 272.073C128.368 271.32 128.149 270.689 127.675 270.276C127.092 269.766 126.363 269.754 125.427 269.754H123.629L121.551 278.411H122.912L122.924 278.423ZM124.103 273.494L124.698 270.992H125.135C126.387 270.992 127.019 271.15 126.91 272.134C126.788 273.275 126.01 273.494 124.552 273.494H124.09H124.103ZM131.357 273.615L131.989 270.992H132.208C133.459 270.992 134.091 271.15 133.982 272.195C133.848 273.397 133.07 273.615 131.624 273.615H131.357ZM130.203 278.423L131.102 274.72H131.418L133.301 278.423H134.832L132.839 274.672C134.31 274.441 135.209 273.494 135.367 272.073C135.452 271.32 135.221 270.689 134.747 270.276C134.164 269.766 133.435 269.754 132.499 269.754H130.932L128.854 278.411H130.203V278.423ZM136.254 278.423H141.114L141.418 277.173H137.906L138.575 274.38H142.087L142.378 273.166H138.879L139.389 270.98H142.901L143.192 269.754H138.332L136.254 278.411V278.423ZM144.833 278.423L145.72 274.72H146.437C147.482 274.72 148.308 274.696 149.037 274.162C149.693 273.688 150.094 272.972 150.191 272.073C150.277 271.32 150.058 270.689 149.584 270.276C149.001 269.766 148.272 269.754 147.336 269.754H145.538L143.46 278.411H144.821L144.833 278.423ZM146.011 273.494L146.607 270.992H147.044C148.296 270.992 148.928 271.15 148.818 272.134C148.697 273.275 147.919 273.494 146.461 273.494H145.999H146.011ZM152.294 275.23L153.655 273.105C153.849 272.802 154.056 272.437 154.286 272C154.323 272.486 154.347 272.85 154.396 273.081L154.833 275.23H152.294ZM148.782 278.423L154.785 269.426L156.972 278.423H155.562L155.076 276.371H151.625L150.264 278.423H148.782ZM158.053 278.423H159.426L161.516 269.766H160.131L158.053 278.423ZM162.039 278.423H164.919C165.539 278.423 166.158 278.399 166.814 278.217C167.604 277.998 168.285 277.586 168.856 277.003C169.646 276.189 170.193 275.048 170.326 273.785C170.484 272.377 170.083 271.235 169.233 270.531C168.321 269.778 167.252 269.742 165.94 269.742H164.093L162.015 278.399L162.039 278.423ZM163.692 277.185L165.174 270.992H165.757C166.754 270.992 167.531 271.005 168.163 271.539C168.771 272.049 169.05 272.862 168.941 273.858C168.819 275.024 168.236 276.031 167.386 276.602C166.523 277.185 165.526 277.197 164.19 277.197H163.692V277.185Z" fill="white"/>
<defs>
<linearGradient id="paint0_linear_0_1" x1="164.736" y1="29.3353" x2="212.177" y2="-33.134" gradientUnits="userSpaceOnUse">
<stop stop-color="#120F11"/>
<stop offset="1" stop-color="#333232"/>
</linearGradient>
<linearGradient id="paint1_linear_0_1" x1="138.974" y1="31.8123" x2="192.926" y2="31.8123" gradientUnits="userSpaceOnUse">
<stop stop-color="#120F11"/>
<stop offset="1" stop-color="#333232"/>
</linearGradient>
<linearGradient id="paint2_linear_0_1" x1="197.677" y1="76.6165" x2="154.081" y2="53.0817" gradientUnits="userSpaceOnUse">
<stop stop-color="#120F11"/>
<stop offset="1" stop-color="#333232"/>
</linearGradient>
<linearGradient id="paint3_linear_0_1" x1="160.75" y1="43.7601" x2="64.8524" y2="-25.1666" gradientUnits="userSpaceOnUse">
<stop stop-color="#120F11"/>
<stop offset="1" stop-color="#333232"/>
</linearGradient>
<linearGradient id="paint4_linear_0_1" x1="74.4024" y1="13.1013" x2="74.4024" y2="-7.7588" gradientUnits="userSpaceOnUse">
<stop stop-color="#120F11"/>
<stop offset="1" stop-color="#333232"/>
</linearGradient>
<linearGradient id="paint5_linear_0_1" x1="89.0204" y1="12.9313" x2="-55.353" y2="41.6406" gradientUnits="userSpaceOnUse">
<stop stop-color="#120F11"/>
<stop offset="1" stop-color="#333232"/>
</linearGradient>
<linearGradient id="paint6_linear_0_1" x1="-12.1999" y1="23.5927" x2="83.3489" y2="48.264" gradientUnits="userSpaceOnUse">
<stop stop-color="#120F11"/>
<stop offset="1" stop-color="#333232"/>
</linearGradient>
<linearGradient id="paint7_linear_0_1" x1="131.769" y1="106.923" x2="105.499" y2="-0.312769" gradientUnits="userSpaceOnUse">
<stop stop-color="#120F11"/>
<stop offset="1" stop-color="#333232"/>
</linearGradient>
<linearGradient id="paint8_linear_0_1" x1="138.974" y1="62.9932" x2="192.926" y2="62.9932" gradientUnits="userSpaceOnUse">
<stop stop-color="#120F11"/>
<stop offset="1" stop-color="#333232"/>
</linearGradient>
<linearGradient id="paint9_linear_0_1" x1="156.618" y1="100.84" x2="130.348" y2="-6.40809" gradientUnits="userSpaceOnUse">
<stop stop-color="#120F11"/>
<stop offset="1" stop-color="#333232"/>
</linearGradient>
<linearGradient id="paint10_linear_0_1" x1="190.751" y1="89.4629" x2="147.143" y2="65.9282" gradientUnits="userSpaceOnUse">
<stop stop-color="#120F11"/>
<stop offset="1" stop-color="#333232"/>
</linearGradient>
<linearGradient id="paint11_linear_0_1" x1="171.005" y1="97.3189" x2="144.735" y2="-9.9293" gradientUnits="userSpaceOnUse">
<stop stop-color="#120F11"/>
<stop offset="1" stop-color="#333232"/>
</linearGradient>
<linearGradient id="paint12_linear_0_1" x1="146.618" y1="63.4303" x2="50.7204" y2="-5.50855" gradientUnits="userSpaceOnUse">
<stop stop-color="#120F11"/>
<stop offset="1" stop-color="#333232"/>
</linearGradient>
<linearGradient id="paint13_linear_0_1" x1="129.363" y1="107.518" x2="103.081" y2="0.270042" gradientUnits="userSpaceOnUse">
<stop stop-color="#120F11"/>
<stop offset="1" stop-color="#333232"/>
</linearGradient>
<linearGradient id="paint14_linear_0_1" x1="-7.65532" y1="31.3752" x2="62.8855" y2="92.7457" gradientUnits="userSpaceOnUse">
<stop stop-color="#120F11"/>
<stop offset="1" stop-color="#333232"/>
</linearGradient>
<linearGradient id="paint15_linear_0_1" x1="94.2451" y1="70.3997" x2="28.8087" y2="34.806" gradientUnits="userSpaceOnUse">
<stop stop-color="#120F11"/>
<stop offset="1" stop-color="#333232"/>
</linearGradient>
<linearGradient id="paint16_linear_0_1" x1="213.498" y1="98.2417" x2="55.8555" y2="173.786" gradientUnits="userSpaceOnUse">
<stop stop-color="#120F11"/>
<stop offset="1" stop-color="#333232"/>
</linearGradient>
<linearGradient id="paint17_linear_0_1" x1="143.021" y1="123.764" x2="120.281" y2="150.409" gradientUnits="userSpaceOnUse">
<stop stop-color="#120F11"/>
<stop offset="1" stop-color="#333232"/>
</linearGradient>
<linearGradient id="paint18_linear_0_1" x1="88.2188" y1="156.56" x2="192.598" y2="156.56" gradientUnits="userSpaceOnUse">
<stop stop-color="#120F11"/>
<stop offset="1" stop-color="#333232"/>
</linearGradient>
<linearGradient id="paint19_linear_0_1" x1="103.043" y1="177.809" x2="192.599" y2="177.809" gradientUnits="userSpaceOnUse">
<stop stop-color="#120F11"/>
<stop offset="1" stop-color="#333232"/>
</linearGradient>
<linearGradient id="paint20_linear_0_1" x1="161.976" y1="241.093" x2="191.803" y2="140.69" gradientUnits="userSpaceOnUse">
<stop stop-color="#120F11"/>
<stop offset="1" stop-color="#333232"/>
</linearGradient>
<linearGradient id="paint21_linear_0_1" x1="88.2188" y1="176.631" x2="104.441" y2="176.631" gradientUnits="userSpaceOnUse">
<stop stop-color="#120F11"/>
<stop offset="1" stop-color="#333232"/>
</linearGradient>
<linearGradient id="paint22_linear_0_1" x1="99.0574" y1="148.316" x2="68.4995" y2="140.74" gradientUnits="userSpaceOnUse">
<stop stop-color="#120F11"/>
<stop offset="1" stop-color="#333232"/>
</linearGradient>
<linearGradient id="paint23_linear_0_1" x1="104.246" y1="195.451" x2="3.71433" y2="171.497" gradientUnits="userSpaceOnUse">
<stop stop-color="#120F11"/>
<stop offset="1" stop-color="#333232"/>
</linearGradient>
<linearGradient id="paint24_linear_0_1" x1="106.324" y1="186.721" x2="5.80435" y2="162.767" gradientUnits="userSpaceOnUse">
<stop stop-color="#120F11"/>
<stop offset="1" stop-color="#333232"/>
</linearGradient>
<linearGradient id="paint25_linear_0_1" x1="88.2185" y1="201.704" x2="104.44" y2="201.704" gradientUnits="userSpaceOnUse">
<stop stop-color="#120F11"/>
<stop offset="1" stop-color="#333232"/>
</linearGradient>
<linearGradient id="paint26_linear_0_1" x1="102.508" y1="202.773" x2="1.9767" y2="178.819" gradientUnits="userSpaceOnUse">
<stop stop-color="#120F11"/>
<stop offset="1" stop-color="#333232"/>
</linearGradient>
<linearGradient id="paint27_linear_0_1" x1="54.0247" y1="190.133" x2="31.95" y2="137.267" gradientUnits="userSpaceOnUse">
<stop stop-color="#120F11"/>
<stop offset="1" stop-color="#333232"/>
</linearGradient>
<linearGradient id="paint28_linear_0_1" x1="111.33" y1="229.194" x2="-24.6211" y2="199.221" gradientUnits="userSpaceOnUse">
<stop stop-color="#120F11"/>
<stop offset="1" stop-color="#333232"/>
</linearGradient>
<linearGradient id="paint29_linear_0_1" x1="81.8994" y1="139.44" x2="9.33362" y2="98.9721" gradientUnits="userSpaceOnUse">
<stop stop-color="#120F11"/>
<stop offset="1" stop-color="#333232"/>
</linearGradient>
<linearGradient id="paint30_linear_0_1" x1="72.8349" y1="120.644" x2="-5.68282" y2="135.272" gradientUnits="userSpaceOnUse">
<stop stop-color="#120F11"/>
<stop offset="1" stop-color="#333232"/>
</linearGradient>
<linearGradient id="paint31_linear_0_1" x1="80.5094" y1="161.236" x2="0.832198" y2="176.162" gradientUnits="userSpaceOnUse">
<stop stop-color="#120F11"/>
<stop offset="1" stop-color="#333232"/>
</linearGradient>
<linearGradient id="paint32_linear_0_1" x1="50.756" y1="191.493" x2="28.6813" y2="138.627" gradientUnits="userSpaceOnUse">
<stop stop-color="#120F11"/>
<stop offset="1" stop-color="#333232"/>
</linearGradient>
<linearGradient id="paint33_linear_0_1" x1="77.8534" y1="147.502" x2="-0.676479" y2="162.143" gradientUnits="userSpaceOnUse">
<stop stop-color="#120F11"/>
<stop offset="1" stop-color="#333232"/>
</linearGradient>
<linearGradient id="paint34_linear_0_1" x1="82.592" y1="138.214" x2="10.0141" y2="97.7336" gradientUnits="userSpaceOnUse">
<stop stop-color="#120F11"/>
<stop offset="1" stop-color="#333232"/>
</linearGradient>
<linearGradient id="paint35_linear_0_1" x1="72.6158" y1="119.442" x2="-5.9019" y2="134.082" gradientUnits="userSpaceOnUse">
<stop stop-color="#120F11"/>
<stop offset="1" stop-color="#333232"/>
</linearGradient>
<linearGradient id="paint36_linear_0_1" x1="50.5616" y1="75.1231" x2="-41.2177" y2="116.823" gradientUnits="userSpaceOnUse">
<stop stop-color="#120F11"/>
<stop offset="1" stop-color="#333232"/>
</linearGradient>
<linearGradient id="paint37_linear_0_1" x1="-14.2049" y1="234.78" x2="65.2632" y2="225.951" gradientUnits="userSpaceOnUse">
<stop stop-color="#120F11"/>
<stop offset="1" stop-color="#333232"/>
</linearGradient>
<linearGradient id="paint38_linear_0_1" x1="113.736" y1="218.278" x2="-22.2152" y2="188.317" gradientUnits="userSpaceOnUse">
<stop stop-color="#120F11"/>
<stop offset="1" stop-color="#333232"/>
</linearGradient>
<linearGradient id="paint39_linear_0_1" x1="-17.6923" y1="203.429" x2="61.7758" y2="194.6" gradientUnits="userSpaceOnUse">
<stop stop-color="#120F11"/>
<stop offset="1" stop-color="#333232"/>
</linearGradient>
<linearGradient id="paint40_linear_0_1" x1="84.8526" y1="219.274" x2="-71.8903" y2="375.176" gradientUnits="userSpaceOnUse">
<stop stop-color="#120F11"/>
<stop offset="1" stop-color="#333232"/>
</linearGradient>
<linearGradient id="paint41_linear_0_1" x1="98.4746" y1="232.958" x2="-58.2684" y2="388.86" gradientUnits="userSpaceOnUse">
<stop stop-color="#120F11"/>
<stop offset="1" stop-color="#333232"/>
</linearGradient>
<linearGradient id="paint42_linear_0_1" x1="79.8586" y1="309.465" x2="94.3701" y2="216.308" gradientUnits="userSpaceOnUse">
<stop stop-color="#120F11"/>
<stop offset="1" stop-color="#333232"/>
</linearGradient>
<linearGradient id="paint43_linear_0_1" x1="93.7234" y1="225.891" x2="159.125" y2="165.799" gradientUnits="userSpaceOnUse">
<stop stop-color="#120F11"/>
<stop offset="1" stop-color="#333232"/>
</linearGradient>
<linearGradient id="paint44_linear_0_1" x1="96.1408" y1="300.541" x2="171.733" y2="199.33" gradientUnits="userSpaceOnUse">
<stop stop-color="#120F11"/>
<stop offset="1" stop-color="#333232"/>
</linearGradient>
<linearGradient id="paint45_linear_0_1" x1="119.314" y1="317.856" x2="194.907" y2="216.633" gradientUnits="userSpaceOnUse">
<stop stop-color="#120F11"/>
<stop offset="1" stop-color="#333232"/>
</linearGradient>
<linearGradient id="paint46_linear_0_1" x1="104.453" y1="245.586" x2="144.37" y2="245.586" gradientUnits="userSpaceOnUse">
<stop stop-color="#120F11"/>
<stop offset="1" stop-color="#333232"/>
</linearGradient>
<linearGradient id="paint47_linear_0_1" x1="93" y1="0" x2="93" y2="364.5" gradientUnits="userSpaceOnUse">
<stop stop-opacity="0.4"/>
<stop offset="0.323731"/>
</linearGradient>
</defs>
</svg>
