<svg width="16" height="18" viewBox="0 0 16 18" fill="none" xmlns="http://www.w3.org/2000/svg">
<path d="M15.5 6.45002C15.4913 6.37347 15.4746 6.29805 15.45 6.22502V6.15002C15.4099 6.06434 15.3565 5.98557 15.2917 5.91669L10.2917 0.916687C10.2228 0.851867 10.144 0.798421 10.0583 0.758354C10.0335 0.75482 10.0082 0.75482 9.98333 0.758354C9.89868 0.709805 9.80519 0.678641 9.70833 0.666687H6.33333C5.67029 0.666687 5.03441 0.930079 4.56557 1.39892C4.09673 1.86776 3.83333 2.50365 3.83333 3.16669V4.00002H3C2.33696 4.00002 1.70107 4.26341 1.23223 4.73225C0.763392 5.20109 0.5 5.83698 0.5 6.50002V14.8334C0.5 15.4964 0.763392 16.1323 1.23223 16.6011C1.70107 17.07 2.33696 17.3334 3 17.3334H9.66667C10.3297 17.3334 10.9656 17.07 11.4344 16.6011C11.9033 16.1323 12.1667 15.4964 12.1667 14.8334V14H13C13.663 14 14.2989 13.7366 14.7678 13.2678C15.2366 12.7989 15.5 12.1631 15.5 11.5V6.50002C15.5 6.50002 15.5 6.50002 15.5 6.45002ZM10.5 3.50835L12.6583 5.66669H11.3333C11.1123 5.66669 10.9004 5.57889 10.7441 5.42261C10.5878 5.26633 10.5 5.05437 10.5 4.83335V3.50835ZM10.5 14.8334C10.5 15.0544 10.4122 15.2663 10.2559 15.4226C10.0996 15.5789 9.88768 15.6667 9.66667 15.6667H3C2.77899 15.6667 2.56702 15.5789 2.41074 15.4226C2.25446 15.2663 2.16667 15.0544 2.16667 14.8334V6.50002C2.16667 6.27901 2.25446 6.06705 2.41074 5.91077C2.56702 5.75448 2.77899 5.66669 3 5.66669H3.83333V11.5C3.83333 12.1631 4.09673 12.7989 4.56557 13.2678C5.03441 13.7366 5.67029 14 6.33333 14H10.5V14.8334ZM13.8333 11.5C13.8333 11.721 13.7455 11.933 13.5893 12.0893C13.433 12.2456 13.221 12.3334 13 12.3334H6.33333C6.11232 12.3334 5.90036 12.2456 5.74408 12.0893C5.5878 11.933 5.5 11.721 5.5 11.5V3.16669C5.5 2.94567 5.5878 2.73371 5.74408 2.57743C5.90036 2.42115 6.11232 2.33335 6.33333 2.33335H8.83333V4.83335C8.83333 5.4964 9.09672 6.13228 9.56557 6.60112C10.0344 7.06996 10.6703 7.33335 11.3333 7.33335H13.8333V11.5Z" fill="#A90808"/>
</svg>
