<svg width="20" height="20" viewBox="0 0 20 20" fill="none" xmlns="http://www.w3.org/2000/svg">
<path d="M17.6333 13.4416L15.9667 12.4833L16.7083 12.2833C16.8173 12.2579 16.92 12.2109 17.0103 12.145C17.1007 12.0791 17.1769 11.9957 17.2343 11.8997C17.2917 11.8037 17.3293 11.6972 17.3447 11.5864C17.3601 11.4757 17.353 11.3629 17.3239 11.2549C17.2948 11.1469 17.2443 11.0459 17.1753 10.9579C17.1063 10.8698 17.0204 10.7965 16.9225 10.7424C16.8246 10.6883 16.7168 10.6545 16.6056 10.6429C16.4944 10.6313 16.3819 10.6422 16.275 10.675L13.925 11.3083L11.6667 9.99998L13.925 8.69165L16.275 9.32498H16.4917C16.7127 9.35371 16.9361 9.29347 17.1127 9.15751C17.2893 9.02154 17.4046 8.82099 17.4333 8.59998C17.4621 8.37897 17.4018 8.15559 17.2659 7.97899C17.1299 7.8024 16.9294 7.68704 16.7083 7.65831L15.9667 7.49998L17.6333 6.54165C17.7286 6.48693 17.8121 6.41399 17.8791 6.32701C17.9461 6.24002 17.9953 6.14068 18.024 6.03467C18.0526 5.92866 18.0601 5.81804 18.0459 5.70914C18.0318 5.60024 17.9964 5.49519 17.9417 5.39998C17.887 5.30477 17.814 5.22127 17.727 5.15425C17.6401 5.08723 17.5407 5.038 17.4347 5.00937C17.3287 4.98073 17.2181 4.97327 17.1092 4.98738C17.0003 5.0015 16.8952 5.03693 16.8 5.09165L15 6.14165L15.25 5.21665C15.2828 5.10972 15.2937 4.99729 15.2821 4.88605C15.2705 4.77481 15.2367 4.66705 15.1826 4.56917C15.1284 4.4713 15.0552 4.38532 14.9671 4.31635C14.8791 4.24739 14.7781 4.19685 14.6701 4.16776C14.5621 4.13866 14.4493 4.1316 14.3386 4.147C14.2278 4.16239 14.1213 4.19993 14.0253 4.25737C13.9293 4.31481 13.8459 4.39097 13.78 4.48133C13.7141 4.57169 13.6671 4.67439 13.6417 4.78331L12.9583 7.28331L10.8333 8.55831V5.94998L12.5583 4.22498C12.7136 4.06884 12.8007 3.85763 12.8007 3.63748C12.8007 3.41732 12.7136 3.20612 12.5583 3.04998C12.4809 2.97187 12.3887 2.90988 12.2872 2.86757C12.1856 2.82526 12.0767 2.80348 11.9667 2.80348C11.8567 2.80348 11.7477 2.82526 11.6462 2.86757C11.5447 2.90988 11.4525 2.97187 11.375 3.04998L10.8333 3.59165V1.66665C10.8333 1.44563 10.7455 1.23367 10.5893 1.07739C10.433 0.92111 10.221 0.833313 10 0.833313C9.779 0.833313 9.56704 0.92111 9.41076 1.07739C9.25448 1.23367 9.16668 1.44563 9.16668 1.66665V3.72498L8.49168 3.04998C8.41421 2.97187 8.32204 2.90988 8.22049 2.86757C8.11894 2.82526 8.01002 2.80348 7.90001 2.80348C7.79 2.80348 7.68108 2.82526 7.57953 2.86757C7.47798 2.90988 7.38582 2.97187 7.30835 3.04998C7.15314 3.20612 7.06602 3.41732 7.06602 3.63748C7.06602 3.85763 7.15314 4.06884 7.30835 4.22498L9.16668 6.08331V8.58331L7.02501 7.31665L6.34168 4.81665C6.3163 4.70772 6.26926 4.60502 6.20336 4.51467C6.13745 4.42431 6.05403 4.34814 5.95807 4.2907C5.86211 4.23326 5.75557 4.19573 5.64479 4.18033C5.53402 4.16494 5.42128 4.172 5.31329 4.20109C5.2053 4.23019 5.10427 4.28072 5.01623 4.34969C4.92818 4.41865 4.85492 4.50463 4.8008 4.6025C4.74668 4.70038 4.71282 4.80815 4.70123 4.91938C4.68965 5.03062 4.70057 5.14305 4.73335 5.24998L5.00001 6.14165L3.20001 5.10831C3.10481 5.0536 2.99975 5.01817 2.89085 5.00405C2.78195 4.98993 2.67134 4.9974 2.56532 5.02603C2.45931 5.05466 2.35997 5.1039 2.27299 5.17092C2.186 5.23794 2.11306 5.32144 2.05835 5.41665C2.00363 5.51186 1.9682 5.61691 1.95408 5.72581C1.93997 5.83471 1.94744 5.94532 1.97607 6.05134C2.03389 6.26544 2.1744 6.44781 2.36668 6.55831L4.03335 7.49998L3.33335 7.71665C3.11233 7.74538 2.91179 7.86073 2.77582 8.03733C2.63986 8.21392 2.57962 8.4373 2.60835 8.65831C2.63708 8.87933 2.75243 9.07987 2.92903 9.21584C3.10562 9.3518 3.329 9.41205 3.55001 9.38331H3.76668L6.11668 8.74998L8.33335 9.99998L6.07501 11.3083L3.72501 10.675C3.61475 10.634 3.49706 10.6169 3.3797 10.6247C3.26234 10.6325 3.14796 10.665 3.04407 10.7202C2.94019 10.7754 2.84917 10.8519 2.77698 10.9448C2.7048 11.0376 2.65309 11.1447 2.62526 11.259C2.59743 11.3733 2.59411 11.4922 2.61551 11.6078C2.63692 11.7235 2.68256 11.8333 2.74945 11.9301C2.81633 12.0268 2.90294 12.1083 3.00358 12.1692C3.10422 12.2301 3.2166 12.269 3.33335 12.2833L4.07501 12.4833L2.40835 13.4416C2.21607 13.5522 2.07556 13.7345 2.01773 13.9486C1.95991 14.1627 1.98951 14.391 2.10001 14.5833C2.21052 14.7756 2.39289 14.9161 2.60699 14.9739C2.82109 15.0318 3.0494 15.0022 3.24168 14.8916L5.00001 13.8583L4.75001 14.7833C4.71698 14.89 4.70572 15.0022 4.71691 15.1133C4.7281 15.2244 4.7615 15.3321 4.81514 15.4301C4.86877 15.528 4.94155 15.6142 5.02914 15.6835C5.11673 15.7527 5.21734 15.8037 5.32501 15.8333C5.397 15.8415 5.46969 15.8415 5.54168 15.8333C5.72982 15.8398 5.91459 15.7823 6.06591 15.6703C6.21723 15.5584 6.32618 15.3984 6.37501 15.2166L7.05835 12.7166L9.16668 11.4416V14.05L7.44168 15.775C7.28647 15.9311 7.19935 16.1423 7.19935 16.3625C7.19935 16.5826 7.28647 16.7938 7.44168 16.95C7.51886 17.0287 7.6109 17.0914 7.71246 17.1343C7.81402 17.1772 7.92309 17.1995 8.03335 17.2C8.1436 17.1995 8.25267 17.1772 8.35424 17.1343C8.4558 17.0914 8.54783 17.0287 8.62501 16.95L9.16668 16.4083V18.3333C9.16668 18.5543 9.25448 18.7663 9.41076 18.9226C9.56704 19.0788 9.779 19.1666 10 19.1666C10.221 19.1666 10.433 19.0788 10.5893 18.9226C10.7455 18.7663 10.8333 18.5543 10.8333 18.3333V16.275L11.5083 16.95C11.5858 17.0281 11.678 17.0901 11.7795 17.1324C11.8811 17.1747 11.99 17.1965 12.1 17.1965C12.21 17.1965 12.3189 17.1747 12.4205 17.1324C12.522 17.0901 12.6142 17.0281 12.6917 16.95C12.8469 16.7938 12.934 16.5826 12.934 16.3625C12.934 16.1423 12.8469 15.9311 12.6917 15.775L10.8333 13.9166V11.4166L12.975 12.6583L13.6583 15.1583C13.7072 15.3401 13.8161 15.5 13.9675 15.612C14.1188 15.724 14.3035 15.7814 14.4917 15.775C14.5637 15.7832 14.6364 15.7832 14.7083 15.775C14.8147 15.7469 14.9145 15.6981 15.002 15.6313C15.0894 15.5645 15.1627 15.4811 15.2177 15.3858C15.2727 15.2905 15.3083 15.1852 15.3225 15.0761C15.3366 14.967 15.329 14.8561 15.3 14.75L15 13.8583L16.7833 14.8916C16.8786 14.9464 16.9836 14.9818 17.0925 14.9959C17.2014 15.01 17.312 15.0026 17.418 14.9739C17.5241 14.9453 17.6234 14.8961 17.7104 14.829C17.7974 14.762 17.8703 14.6785 17.925 14.5833C17.9797 14.4881 18.0152 14.3831 18.0293 14.2742C18.0434 14.1653 18.0359 14.0546 18.0073 13.9486C17.9787 13.8426 17.9294 13.7433 17.8624 13.6563C17.7954 13.5693 17.7119 13.4964 17.6167 13.4416H17.6333Z" fill="white"/>
</svg>
