<svg width="49" height="16" viewBox="0 0 49 16" fill="none" xmlns="http://www.w3.org/2000/svg">
<path d="M37.4545 14.5866C37.5153 14.4288 37.9284 13.7246 38.0378 13.5789C38.0864 13.6031 38.1471 13.6274 38.1957 13.6638C38.8276 14.016 39.4959 14.2467 40.2128 14.356C42.5702 14.7202 44.8668 13.7246 46.2156 11.8304C46.7989 11.0047 47.1634 10.0941 47.2971 9.09842C47.7102 5.91719 45.7174 3.19736 42.9833 2.3717C42.2178 2.141 41.4401 2.05601 40.6503 2.12886C37.8069 2.38384 35.6926 4.48443 35.1579 6.96141C34.8906 8.23633 34.9999 9.47483 35.5103 10.689C35.6197 10.9683 35.729 11.2354 35.7898 11.539C36.045 12.826 35.4617 14.1374 34.3438 14.8295C33.8213 15.1452 33.2623 15.303 32.6426 15.303C31.6948 15.303 30.7591 15.303 29.8113 15.303C29.3374 15.303 28.8635 15.303 28.3896 15.303C27.5876 15.303 26.895 15.0238 26.2875 14.5017C26.1295 14.3681 25.9958 14.2224 25.8743 14.0645C25.85 14.0403 25.8379 14.0038 25.8014 13.9553C25.8743 13.8338 25.9715 13.7367 26.0566 13.6274C26.1295 13.5181 26.2145 13.4089 26.2996 13.3117C26.3847 13.2025 26.4576 13.081 26.5426 12.9596C26.5791 13.0325 26.6155 13.0689 26.6398 13.1175C26.9558 13.6396 27.4175 13.9553 28.0129 14.0888C28.1223 14.1131 28.2438 14.1253 28.3532 14.1253C29.7992 14.1253 31.2573 14.1253 32.7033 14.1253C33.5418 14.1253 34.3195 13.5667 34.5868 12.7168C34.9392 11.5754 34.1858 10.3733 33.0071 10.1791C32.8735 10.1548 32.7398 10.1548 32.6061 10.1426C32.0715 10.1426 31.5368 10.1426 31.0143 10.1426C30.9293 10.1426 30.832 10.1426 30.747 10.1062C30.5526 10.0334 30.4189 9.88766 30.3703 9.68124C30.3581 9.59625 30.346 9.51125 30.346 9.41411C30.346 7.5928 30.346 5.78363 30.346 3.96232C30.346 3.78018 30.346 3.59805 30.2974 3.41592C30.103 2.51741 29.301 1.87387 28.4139 1.83745C27.454 1.80102 26.6034 2.44455 26.3847 3.36735C26.3482 3.5252 26.3239 3.68305 26.3239 3.84089C26.3239 4.15659 26.3239 4.47228 26.3239 4.78798C26.3239 5.79577 26.3239 6.81571 26.3239 7.8235C26.3239 8.18776 26.2996 8.53989 26.2388 8.90415C26.1173 9.60839 25.9351 10.3005 25.6556 10.9683C25.1209 12.2554 24.246 13.2632 23.1038 14.0524C22.2411 14.6474 21.2811 15.0359 20.2361 15.218C16.2383 15.8859 12.678 13.3117 11.8274 9.6691C11.7423 9.30484 11.6937 8.94057 11.6573 8.56417C11.6573 8.47918 11.6573 8.40632 11.7302 8.34561C12.0704 8.01778 12.4107 7.68994 12.7631 7.3621C12.7752 7.34996 12.7995 7.33782 12.836 7.31353C12.836 7.34996 12.836 7.37424 12.836 7.39853C12.7266 8.57631 12.921 9.70553 13.4678 10.7497C14.4035 12.5468 15.8616 13.6396 17.8423 14.0524C21.2447 14.6595 24.2582 12.4861 24.9873 9.40197C25.0845 8.977 25.1452 8.55203 25.1452 8.12705C25.1452 6.81571 25.1452 5.50436 25.1452 4.19301C25.1452 4.07159 25.1452 3.95017 25.1452 3.82875C25.1574 2.68739 25.6556 1.78888 26.6155 1.16963C28.4625 -0.00815058 30.9414 0.975359 31.4396 3.18522C31.5004 3.4402 31.5125 3.69519 31.5125 3.96232C31.5125 5.54079 31.5125 7.1314 31.5125 8.70987C31.5125 8.79487 31.5125 8.86772 31.5368 8.96486C31.6097 8.96486 31.6705 8.96486 31.7312 8.96486C31.9986 8.96486 32.278 8.96486 32.5454 8.96486C32.9585 8.96486 33.3717 9.02557 33.7605 9.15913C33.7848 9.15913 33.8213 9.17128 33.8577 9.18342C33.8577 9.13485 33.8577 9.09842 33.8577 9.062C33.8334 8.77059 33.8091 8.46703 33.8213 8.17562C33.8577 6.41502 34.4288 4.84869 35.5711 3.50092C36.6647 2.21385 38.0499 1.38819 39.7146 1.06035C43.7003 0.28326 47.3578 2.77239 48.2813 6.47573C48.4757 7.25282 48.5365 8.04206 48.4757 8.8313C48.1963 12.1947 45.7538 14.7566 42.7646 15.4123C42.1571 15.5459 41.5373 15.6066 40.9176 15.5823C39.7268 15.5337 38.621 15.2302 37.576 14.6595C37.5274 14.6352 37.4667 14.5988 37.418 14.5624L37.4545 14.5866Z" fill="#ED1C24"/>
<path d="M23.8086 2.44456C23.8207 3.0031 23.8329 3.54949 23.8329 4.13231C23.7843 4.09589 23.76 4.08374 23.7478 4.05946C23.5777 3.87733 23.4076 3.68306 23.2253 3.51307C22.3383 2.67526 21.2933 2.15315 20.1024 1.93459C19.5313 1.82531 18.9602 1.81317 18.377 1.87388C17.2712 1.9953 16.2626 2.38385 15.3634 3.03952C15.2905 3.10023 15.2176 3.16094 15.1447 3.22166C14.0997 4.24159 13.0668 5.26153 12.0218 6.28146C11.232 7.05856 10.43 7.82351 9.64016 8.6006C9.44574 8.78274 9.4822 8.72202 9.4822 8.97701C9.4822 10.2641 9.4822 11.5633 9.4822 12.8503C9.4822 13.5667 9.25132 14.1981 8.78957 14.7324C8.14556 15.4852 7.30711 15.8373 6.31071 15.7766C5.19279 15.7159 4.06272 14.9509 3.67387 13.6881C3.57666 13.3846 3.54021 13.081 3.54021 12.7653C3.54021 11.5633 3.54021 10.3612 3.54021 9.15914C3.54021 8.81916 3.57666 8.92844 3.35794 8.69774C2.53165 7.81137 1.69321 6.93714 0.866924 6.05076C0.247207 5.38295 -0.0201223 4.59371 0.0770881 3.6952C0.222904 2.37171 1.21931 1.32749 2.5195 1.12107C3.50376 0.963226 4.3665 1.24249 5.08343 1.93459C5.50872 2.34742 5.92187 2.7724 6.33501 3.18523C6.38362 3.2338 6.43222 3.28237 6.48082 3.31879C6.55373 3.31879 6.59019 3.25808 6.62664 3.22166C7.05194 2.79668 7.47723 2.37171 7.90253 1.94674C8.25492 1.59462 8.66806 1.35177 9.14196 1.20607C10.272 0.866089 11.4993 1.23035 12.2527 2.14101C12.3013 2.18958 12.3378 2.25029 12.3742 2.29886C12.2891 2.42028 11.7545 2.96667 11.5601 3.13666C11.4872 3.13666 11.475 3.06381 11.4507 3.01524C11.1955 2.66312 10.8674 2.42028 10.4422 2.32314C9.83459 2.17744 9.29993 2.311 8.82603 2.69955C8.76527 2.74811 8.71667 2.80882 8.65591 2.85739C8.1091 3.40379 7.56229 3.95018 7.01548 4.49658C6.97903 4.533 6.94257 4.56943 6.90612 4.60585C6.6874 4.82441 6.29856 4.82441 6.07983 4.60585C6.04338 4.56943 6.00692 4.533 5.97047 4.49658C5.41151 3.93804 4.85255 3.3795 4.29359 2.82097C3.97766 2.50527 3.61312 2.32314 3.17567 2.27457C2.85974 2.23815 2.55595 2.29886 2.26432 2.42028C1.15855 2.93024 0.866924 4.36301 1.70536 5.26153C2.58026 6.19647 3.45515 7.13141 4.3422 8.05421C4.37865 8.09064 4.4151 8.1392 4.46371 8.17563C4.64598 8.33348 4.70674 8.53989 4.70674 8.78273C4.70674 10.0941 4.70674 11.4176 4.70674 12.7411C4.70674 12.9232 4.71889 13.0932 4.76749 13.2632C4.94976 14.016 5.65454 14.5988 6.46867 14.6109C7.33142 14.6231 8.1334 14.0281 8.27922 13.081C8.29137 12.9718 8.29137 12.8625 8.29137 12.7532C8.29137 11.3811 8.29137 10.0091 8.29137 8.62489C8.29137 8.58846 8.29137 8.55203 8.29137 8.51561C8.29137 8.33348 8.35213 8.17563 8.48579 8.04207C8.70452 7.83565 8.91109 7.61709 9.11766 7.41068C9.49435 7.03427 9.87104 6.65787 10.2477 6.28146C10.8553 5.6865 11.475 5.10368 12.0826 4.52086C12.3864 4.22945 12.6901 3.93804 12.9818 3.64663C13.164 3.47664 13.3342 3.29451 13.4921 3.11238C14.6951 1.80103 16.1654 0.951084 17.9152 0.611105C19.4827 0.307553 20.9652 0.586821 22.3504 1.37606C22.8365 1.65533 23.2982 1.9953 23.7235 2.35957C23.7478 2.38385 23.7721 2.39599 23.7964 2.42028L23.8086 2.44456Z" fill="#ED1C24"/>
</svg>
